<?xml version="1.0" encoding="UTF-8"?>
<!DOCTYPE svg PUBLIC "-//W3C//DTD SVG 1.1//EN" "http://www.w3.org/Graphics/SVG/1.1/DTD/svg11.dtd">
<svg xmlns="http://www.w3.org/2000/svg" version="1.1" width="300px" height="148px" style="shape-rendering:geometricPrecision; text-rendering:geometricPrecision; image-rendering:optimizeQuality; fill-rule:evenodd; clip-rule:evenodd" xmlns:xlink="http://www.w3.org/1999/xlink">
<g><path style="opacity:0.995" fill="#bf015b" d="M 48.5,-0.5 C 52.8333,-0.5 57.1667,-0.5 61.5,-0.5C 60.4253,9.58704 63.7586,11.087 71.5,4C 78.9789,2.9849 84.9789,5.4849 89.5,11.5C 92.5792,19.6019 90.9126,26.6019 84.5,32.5C 85.2107,29.1362 84.044,26.8029 81,25.5C 76.3407,28.6651 71.8407,31.9984 67.5,35.5C 66.5041,35.5858 65.6708,35.2524 65,34.5C 58.8854,23.2699 53.0521,11.9365 47.5,0.5C 48.1667,0.5 48.5,0.166667 48.5,-0.5 Z"/></g>
<g><path style="opacity:0.996" fill="#ce0262" d="M 47.5,0.5 C 53.0521,11.9365 58.8854,23.2699 65,34.5C 65.6708,35.2524 66.5041,35.5858 67.5,35.5C 67.0825,36.2216 66.4158,36.7216 65.5,37C 61.8484,37.4986 58.1817,37.6653 54.5,37.5C 50.774,37.8226 47.1073,37.4892 43.5,36.5C 38.9784,27.4437 33.9784,18.777 28.5,10.5C 33.7925,5.35197 40.1259,2.01864 47.5,0.5 Z"/></g>
<g><path style="opacity:0.962" fill="#fe0179" d="M 46.5,100.5 C 37.206,107.792 28.206,115.458 19.5,123.5C 17.6222,125.509 15.4556,125.842 13,124.5C 12.0421,112.404 12.3755,100.404 14,88.5C 37.3749,69.6194 60.8749,50.9528 84.5,32.5C 90.9126,26.6019 92.5792,19.6019 89.5,11.5C 93.1059,12.7237 96.4392,12.0571 99.5,9.5C 102.685,10.0039 104.352,11.8372 104.5,15C 102.662,18.0239 100.996,21.1905 99.5,24.5C 108.321,46.079 104.321,64.9123 87.5,81C 74.2171,89.9588 59.5504,93.1255 43.5,90.5C 43.5,93.8333 43.5,97.1667 43.5,100.5C 44.5,100.5 45.5,100.5 46.5,100.5 Z M 66.5,52.5 C 67.0431,52.56 67.3764,52.8933 67.5,53.5C 65.3546,60.7482 63.5213,68.0815 62,75.5C 61.3632,77.3031 60.1965,78.6364 58.5,79.5C 57.0598,73.8587 55.7264,68.192 54.5,62.5C 58.5707,59.1482 62.5707,55.8149 66.5,52.5 Z"/></g>
<g><path style="opacity:0.986" fill="#dc0169" d="M 28.5,10.5 C 33.9784,18.777 38.9784,27.4437 43.5,36.5C 47.1073,37.4892 50.774,37.8226 54.5,37.5C 46.3434,38.3294 38.0101,38.8294 29.5,39C 28.8333,39.6667 28.1667,40.3333 27.5,41C 34.4731,43.8199 41.1398,47.1532 47.5,51C 44.0469,54.8889 40.0469,58.0555 35.5,60.5C 29.9386,49.0423 23.6052,38.0423 16.5,27.5C 18.7659,20.6439 22.7659,14.9772 28.5,10.5 Z"/></g>
<g><path style="opacity:0.977" fill="#e9016f" d="M 16.5,27.5 C 23.6052,38.0423 29.9386,49.0423 35.5,60.5C 32.0257,63.8017 28.359,66.9684 24.5,70C 19.7231,72.661 15.8897,71.8277 13,67.5C 12.6667,63.8333 12.3333,60.1667 12,56.5C 8.94161,56.2371 5.77495,56.0705 2.5,56C 0.0117478,53.373 -0.154919,50.5397 2,47.5C 5.33333,44.8333 8.66667,42.1667 12,39.5C 12.9463,35.1925 14.4463,31.1925 16.5,27.5 Z"/></g>
<g><path style="opacity:0.812" fill="#ff0074" d="M 113.5,65.5 C 117.514,65.3345 121.514,65.5012 125.5,66C 129.489,69.9546 129.489,73.9546 125.5,78C 123.527,78.4955 121.527,78.6621 119.5,78.5C 119.938,82.9083 117.938,84.5749 113.5,83.5C 113.5,77.5 113.5,71.5 113.5,65.5 Z M 119.5,69.5 C 123.161,69.3501 124.161,70.8501 122.5,74C 121.552,74.4828 120.552,74.6495 119.5,74.5C 119.5,72.8333 119.5,71.1667 119.5,69.5 Z"/></g>
<g><path style="opacity:0.783" fill="#ff0179" d="M 134.5,65.5 C 136.467,65.2606 138.301,65.5939 140,66.5C 142.742,71.9773 144.908,77.644 146.5,83.5C 144.801,83.6602 143.134,83.4935 141.5,83C 140.455,81.474 138.955,80.6406 137,80.5C 134.125,82.0957 130.958,83.0957 127.5,83.5C 129.275,77.2835 131.608,71.2835 134.5,65.5 Z M 136.5,72.5 C 139.377,74.8455 139.044,75.6789 135.5,75C 136.252,74.3292 136.586,73.4959 136.5,72.5 Z"/></g>
<g><path style="opacity:0.826" fill="#ff0179" d="M 144.5,65.5 C 149.5,65.5 154.5,65.5 159.5,65.5C 159.5,66.8333 159.5,68.1667 159.5,69.5C 157.833,69.5 156.167,69.5 154.5,69.5C 154.5,74.1667 154.5,78.8333 154.5,83.5C 152.833,83.5 151.167,83.5 149.5,83.5C 149.5,78.8333 149.5,74.1667 149.5,69.5C 147.833,69.5 146.167,69.5 144.5,69.5C 144.5,68.1667 144.5,66.8333 144.5,65.5 Z"/></g>
<g><path style="opacity:0.823" fill="#ff0179" d="M 160.5,65.5 C 162.167,65.5 163.833,65.5 165.5,65.5C 165.5,67.8333 165.5,70.1667 165.5,72.5C 167.5,72.5 169.5,72.5 171.5,72.5C 171.5,70.1667 171.5,67.8333 171.5,65.5C 173.167,65.5 174.833,65.5 176.5,65.5C 176.5,71.5 176.5,77.5 176.5,83.5C 174.833,83.5 173.167,83.5 171.5,83.5C 171.5,81.1667 171.5,78.8333 171.5,76.5C 169.5,76.5 167.5,76.5 165.5,76.5C 165.5,78.8333 165.5,81.1667 165.5,83.5C 163.833,83.5 162.167,83.5 160.5,83.5C 160.5,77.5 160.5,71.5 160.5,65.5 Z"/></g>
<g><path style="opacity:0.834" fill="#ff0179" d="M 179.5,65.5 C 183.182,65.3347 186.848,65.5014 190.5,66C 194.883,68.9181 195.55,72.5847 192.5,77C 189.986,78.2525 187.32,78.7525 184.5,78.5C 184.5,80.1667 184.5,81.8333 184.5,83.5C 182.833,83.5 181.167,83.5 179.5,83.5C 179.5,77.5 179.5,71.5 179.5,65.5 Z M 184.5,69.5 C 191.167,71.1667 191.167,72.8333 184.5,74.5C 184.5,72.8333 184.5,71.1667 184.5,69.5 Z"/></g>
<g><path style="opacity:0.818" fill="#ff0179" d="M 195.5,65.5 C 199.514,65.3345 203.514,65.5012 207.5,66C 209.894,67.4478 211.394,69.6144 212,72.5C 214.389,66.2233 218.889,64.0567 225.5,66C 232.145,70.5803 232.811,75.9136 227.5,82C 218.712,85.4102 213.212,82.5769 211,73.5C 210.293,75.0806 209.46,76.5806 208.5,78C 212.938,82.7189 211.938,84.2189 205.5,82.5C 204.988,79.6493 203.321,78.3159 200.5,78.5C 200.5,80.1667 200.5,81.8333 200.5,83.5C 198.833,83.5 197.167,83.5 195.5,83.5C 195.5,77.5 195.5,71.5 195.5,65.5 Z M 200.5,69.5 C 204.676,68.8307 206.009,70.3307 204.5,74C 203.207,74.49 201.873,74.6567 200.5,74.5C 200.5,72.8333 200.5,71.1667 200.5,69.5 Z M 220.5,69.5 C 224.516,70.1951 226.016,72.5284 225,76.5C 221.507,79.5018 219.007,78.8351 217.5,74.5C 217.757,72.3076 218.757,70.6409 220.5,69.5 Z"/></g>
<g><path style="opacity:0.82" fill="#ff0179" d="M 232.5,65.5 C 238.061,64.8024 243.227,65.8024 248,68.5C 250.504,73.6457 249.671,78.1457 245.5,82C 241.27,83.2899 236.936,83.7899 232.5,83.5C 232.5,77.5 232.5,71.5 232.5,65.5 Z M 237.5,69.5 C 243.523,70.0603 245.19,72.8937 242.5,78C 240.866,78.4935 239.199,78.6602 237.5,78.5C 237.5,75.5 237.5,72.5 237.5,69.5 Z"/></g>
<g><path style="opacity:0.821" fill="#ff0179" d="M 250.5,65.5 C 252.167,65.5 253.833,65.5 255.5,65.5C 255.335,69.1817 255.501,72.8484 256,76.5C 257.312,78.6576 258.978,78.9909 261,77.5C 261.499,73.5138 261.666,69.5138 261.5,65.5C 263.167,65.5 264.833,65.5 266.5,65.5C 266.666,70.5111 266.499,75.5111 266,80.5C 262.205,83.8034 258.038,84.3034 253.5,82C 252.299,81.0975 251.465,79.9308 251,78.5C 250.501,74.1794 250.334,69.8461 250.5,65.5 Z"/></g>
<g><path style="opacity:0.816" fill="#ff0178" d="M 299.5,65.5 C 299.5,66.8333 299.5,68.1667 299.5,69.5C 297.833,69.5 296.167,69.5 294.5,69.5C 294.5,74.1667 294.5,78.8333 294.5,83.5C 292.833,83.5 291.167,83.5 289.5,83.5C 289.5,78.8333 289.5,74.1667 289.5,69.5C 286.348,69.0471 283.848,70.0471 282,72.5C 278.021,68.2383 275.187,68.905 273.5,74.5C 275.276,78.9853 278.109,79.652 282,76.5C 285.546,79.4627 285.046,81.6294 280.5,83C 270.237,83.972 266.403,79.472 269,69.5C 273.478,65.0652 278.478,64.3985 284,67.5C 288.858,65.5859 294.025,64.9193 299.5,65.5 Z"/></g>
<g><path style="opacity:0.882" fill="#fa0176" d="M -0.5,89.5 C -0.5,87.5 -0.5,85.5 -0.5,83.5C 1.79507,81.7693 4.29507,80.436 7,79.5C 10.2664,79.6001 12.0997,81.2667 12.5,84.5C 10.0618,91.5009 5.7285,93.1676 -0.5,89.5 Z"/></g>
<g><path style="opacity:0.992" fill="#ff2c8f" d="M 43.5,127.5 C 36.7326,125.798 29.7326,124.798 22.5,124.5C 21.609,123.89 20.609,123.557 19.5,123.5C 28.206,115.458 37.206,107.792 46.5,100.5C 52.7137,98.7128 55.047,101.046 53.5,107.5C 50.1294,110.373 46.9628,113.373 44,116.5C 43.5014,120.152 43.3347,123.818 43.5,127.5 Z"/></g>
<g><path style="opacity:0.982" fill="#ff1181" d="M 22.5,124.5 C 29.7326,124.798 36.7326,125.798 43.5,127.5C 44.8952,136.704 41.5619,143.37 33.5,147.5C 29.8333,147.5 26.1667,147.5 22.5,147.5C 16.8719,145.423 15.0385,141.423 17,135.5C 19.9266,133.145 22.4266,130.478 24.5,127.5C 23.8075,126.482 23.1408,125.482 22.5,124.5 Z"/></g>
</svg>
